<svg width="439" height="421" viewBox="0 0 439 421" fill="none" xmlns="http://www.w3.org/2000/svg">
<path d="M199.972 5.08008C212.096 -1.69355 226.866 -1.69354 238.99 5.08008L415.619 103.761C419.253 105.791 422.374 108.175 425.007 110.821C430.548 116.39 436.653 122.553 438.49 130.191C438.798 131.471 438.961 132.807 438.961 134.181V403.181C438.961 412.569 431.35 420.181 421.961 420.181H17C7.61119 420.181 3.70169e-05 412.569 0 403.181V134.181C0 132.806 0.163078 131.47 0.470932 130.191C2.30837 122.552 8.41464 116.388 13.9562 110.82C16.5887 108.174 19.7095 105.791 23.3428 103.761L199.972 5.08008Z" fill="url(#paint0_linear_10_2882)"/>
<defs>
<linearGradient id="paint0_linear_10_2882" x1="334.094" y1="168.31" x2="334.094" y2="-0.410707" gradientUnits="userSpaceOnUse">
<stop stop-color="#023DE6"/>
<stop offset="1" stop-color="#019DF7"/>
</linearGradient>
</defs>
</svg>
